<?xml version="1.0" encoding="UTF-8"?>
<svg id="Layer_1" xmlns="http://www.w3.org/2000/svg" version="1.1" viewBox="0 0 1261.44 271.68">
  <!-- Generator: Adobe Illustrator 29.8.3, SVG Export Plug-In . SVG Version: 2.1.1 Build 3)  -->
  <defs>
    <style>
      .st0 {
        stroke: #000;
        stroke-linecap: round;
        stroke-miterlimit: 10;
      }

      .st0, .st1 {
        fill: #fff;
      }
    </style>
  </defs>
  <g>
    <g>
      <path d="M48.25,223.67c-1.08-33.92-.05-87.09-.4-124.03.11-16.37-1.32-26.74,6.9-39.1,9.14-14.78,26.7-23.86,43.78-24.46,20.18-2.25,61.82,6.86,45.29,34.08-4.53,6.51-14.36,10.1-22.25,12.6-23.15,5.45-23.73,24.42-23.13,50.16,0,18.4-.01,38.38,0,56.49-.76,15.02,1.61,29.26,19.19,31.23,24.09,3.71,48.32-13.08,52.25-37.23,3.17-13.71,2.2-31.16,11.05-38.82,11.66-9.39,37.27-9.99,49.89-1.69,17.64,16.12,9.89,54.21,11.64,77.21,1.73,30.16-10.95,44.55-41.58,47.89-23.89,2.43-48.16.92-72.11,1.33-41.99.22-75.5,5.3-80.45-44.86l-.07-.81h0Z"/>
      <path d="M259.62,213.04c.73,8.29.64,17.18,1.75,25.94,2.48,29.61,39.23,30.38,62.36,30.01,50.86-.46,107.67.92,137.96-.53,20.74-4.86,17.4-33.7,16.92-50.96-.39-25.72-31.4-29.17-50.9-25.43-8.28,1.6-14.16,4.11-17.31,11.12-2.02,4.5-3.43,9.61-7.11,13.23-9.11,10.09-33.52,7.94-49.79,8.23-21.31.99-52.74-1.42-55.28-28.46-.58-7.16,2.04-14.61,8.22-18.43,8.27-5.17,19.15-2.73,24.61-11.29,6.74-9.71,7.66-27.44-1.88-35.82-6.14-4.79-14.68.05-28.05-1.29-8.36-.8-16.79-3.86-23.59-8.65-9.62-6.54-20.66-21.31-21.88-30.85-1.58-13.02,41.22-6.11,50.44-6.41,32.78,1.04,20.59,36.82,51.5,41.42,17.12,2.82,27.88-7.74,27.13-24.65.44-13.58,1.12-32.61.36-42.84-.94-17.84-18.44-17.98-36.49-20.73-52.77-2.06-118.88-1.4-164.83-.46-17.73.84-28.25,13.35-21.37,30.31,3.99,11.12,13.19,15.98,26.04,21.6,70.58,26.26,63,59.88,71.12,124l.08.94h-.01Z"/>
      <path d="M621.04,35.2c-20.53.68-42.8-1.6-62.6,1.37-38.39,10.81,9.13,99.14-24.48,137.83-7.74,13.72-23.35,16.87-33.43,27.28-4.72,5.23-7.14,12.45-7.85,19.89l-.1,1c-6.08,45.02,27.97,53.43,64.31,41.06,16.01-6.5,19.53-21.14,20.05-40.46-.9-41.63,3.58-43.7,43.84-45.19,59.82-2.21,93.79-5.01,90.54-75.16,5.4-67.9-33.97-68.84-90.28-67.62h0ZM670.92,127.13c-9.78,8.53-32.46,5.21-49.48,5.84-13.64.28-21.32-2.64-23.75-14.26-1.18-8.26-1.62-19.17.51-26.79l.34-.85c5.9-12.14,28.35-6.49,40.92-7.77,16.91.35,27.72-1.51,35.11,5.49,8.43,10.26,6.38,29.88-3.66,38.34h0Z"/>
      <path d="M510.48,58.16c-18.05-26.12-58.6-28.07-85.3-14.53-17.46,9.25-25.07,29.36-25.87,49.4-4.96,55.27,11.38,93.46,72.82,87.07l1.13-.15c20.02-2.41,36.91-12.47,44.94-30.23,10.55-27.35,8.26-66.87-7.71-91.56h-.01ZM476.55,130.27c-3.18,7.69-9.86,12.04-17.78,13.09l-.45.06c-24.3,2.76-30.77-13.77-28.8-37.69.32-8.67,3.33-17.38,10.24-21.38,10.56-5.86,26.6-5.02,33.74,6.29,6.32,10.69,7.22,27.79,3.05,39.63h0Z"/>
      <path d="M831.82,177.59c3.44-46.46-23.91-138.34-49.26-141.86-6.03-.36-11.59.06-17.12-.13-7.58.19-17.95-.99-25.32,3.51-10.02,4.87-15.01,19.6-14.34,31.5-.02,15,0,34.82-.01,51.11,3.22,37.29-9.42,48.86-42.62,68.05-45.67,27.56-85.53,7.71-86.96,78.58l.12.15c20.08.75,77.56.08,87.38.28,6.64.1,14.18-3.12,18.12-9.04,7.67-10.35,1.22-26.18,6.33-37.79,2.69-6.19,8.73-9.44,13.72-13.5,8.23-6.43,14.03-14.72,20.46-21.45,7.07-7.07,15.99-5.72,24.97-5.83,7.37,0,14.21-.4,19.25,6.03,6.25,10.68,5.16,31.44-5.06,37.87-7.47,5.13-20.03,3.76-25.06,12.03-4.64,8.03-4.68,20.93,2.29,27.55,3.33,2.85,7,3.99,11.1,4.09,5.69.08,21.57.03,29.73.04,23.94,2.04,34.2-9.33,32.29-33.24v-57.96h0ZM793.55,137.76c-1.16,1.9-8.79,1.38-12.67,1.46-6.18-.34-17.81.81-22.46-.74l-.34-.27c-1.33-1.28-.28-5.34.17-11.58.71-6.6.7-13.81,2.3-20.33,3.24-13.36,19.38-18.92,28.45-8.62,5.28,6.55,6.62,15.6,6.73,23.88-.13,4.72-.07,13.04-2.17,16.21h0Z"/>
      <path d="M1107.08,189.4c-16.38-.88-22.28,8.96-26.5,22.7-11.47,19.53-39.42,11.37-61.57,13.16-30.35,2.22-30.1-15.25-29.6-39.67,1.59-20.02-12.43-29.22-28.52-35.24-4.01-1.78-12.83-3.09-14.7-5.15-.96-1.45,6.65-3.84,14.95-8.1,27.11-12.41,27.39-26.06,27.93-52.86.47-23.47-3.9-46.98-34.67-48.34-32.69-.88-83.75-.04-109.98-.32-8.11.04-19.03.38-23.96,7.91l-.79,2.05c-2.07,11.46,5.56,25.2,11.63,33.84,4.83,6.02,13.71,7.91,17.83,12.86,3.62,3.96,4.97,8.6,5.04,13.44,2.18,28.3-4.94,114.3,11.3,151.26,6.15,14.79,23.52,11.31,38.21,11.84,16.25,1.36,27.53-7.55,25.71-24.44-.58-5.09-2.51-10.07-5.7-14.04-7.38-9.54-18.74-8.8-24.21-18.97-8.35-14.65,2.26-29.39,18.47-29.75,14.79-2.17,27.18,9.76,29.08,24.64,2.86,14.13-1.29,30.07,4.66,43.45,8.29,15.27,27.55,20.49,43.67,19.14,31.45,0,81.52.01,105.68-.02,14.51,1.3,25.48-8.69,27.75-24.03,3.29-19.42,3.65-52.41-21.68-55.34l-.03-.02ZM925.58,112.25h-28.23c-7.1,0-12.86-5.76-12.86-12.86v-18.96c0-3.66,2.81-6.94,6.47-6.94,21.08,0,52.46-5.61,57.29,9.13,5.35,16.3-7.93,29.63-22.67,29.63Z"/>
      <path d="M1118.36,44.88c-9.35-11.06-23.9-9.22-42.37-9.45-15.08.11-30.7-.22-44.6.16l-1.06.06c-24.04.48-32.57,18.69-30.42,39.86v95.92c.44,12.97-1.36,17.22,2.4,25.79,7.64,15.63,30.97,15.74,45.26,8.82,24.62-15.32,65.82-42.67,76.84-62.61,5.57-11.41,4.96-21.49,5.7-34.87.6-19.36.69-49.28-11.76-63.67h.01ZM1080.73,129.64c-.55,2.42-1.65,4.65-3.31,6.5-5.1,5.69-14.59,14.9-23.94,19.66-9.84,5.01-21.39-1.97-21.4-13.01,0-5.99.53-12.29.18-18.28,1.25-13.05-5.49-31.1,11.99-32.09,6.91.73,17.26-1.22,25.19.08,5.26.86,9.39,4.96,10.96,10.05,2.55,8.29,2.2,18.82.32,27.09h.01Z"/>
    </g>
    <g>
      <path d="M1140.1,25.96h3.99v15.94h8.29v3.29h-12.28v-19.24h0Z"/>
      <path d="M1154.37,45.2l6.67-19.24h5.13l6.64,19.24h-4.28l-1.45-4.44h-6.96l-1.45,4.44h-4.3ZM1166.07,37.65l-2.4-7.36h-.13l-2.4,7.36h4.94,0Z"/>
      <path d="M1174.98,25.96h7.65c4.24,0,6.39,2.05,6.38,4.94.01,2.26-1.47,3.68-3.45,4.12v.19c2.17.11,4.21,1.83,4.22,4.68-.01,3.06-2.3,5.31-6.64,5.31h-8.16v-19.24ZM1182.05,34.01c1.67,0,2.94-.93,2.92-2.47.01-1.39-1.02-2.34-2.84-2.34h-3.16v4.81h3.08ZM1182.34,41.9c2.31,0,3.31-.94,3.29-2.39.01-1.62-1.22-2.76-3.19-2.76h-3.48v5.15h3.38Z"/>
    </g>
  </g>
  <g>
    <g>
      <g>
        <path class="st1" d="M125.46,249.78c-30.38,0-53.94-3.29-58.03-44.65l-.07-.8c-.66-20.58-.53-48.33-.41-75.16.08-17.66.15-34.33.02-48.82.01-2.28,0-4.46-.01-6.54-.09-12.64-.15-21.78,6.83-32.28,8.73-14.12,25.76-23.62,43.38-24.23,1.97-.22,4.09-.33,6.34-.33,7.9,0,16.45,1.34,23.46,3.67,8.36,2.78,14.22,6.81,16.95,11.67,2.94,5.23,2.3,11.39-1.91,18.32-4.27,6.13-13.51,9.7-21.98,12.38-22.8,5.37-24.11,23.54-23.48,50.64v56.48c-.69,13.66.91,29.63,19.63,31.73,2.22.34,4.51.52,6.78.52,22.7,0,42.48-16.41,46.02-38.17.93-4.03,1.52-8.46,2.08-12.75,1.39-10.54,2.7-20.49,8.8-25.76,5.74-4.62,15.49-7.39,26.09-7.39,9.2,0,17.66,2.09,23.19,5.74,12.68,11.59,11.99,35.05,11.38,55.75-.23,7.66-.44,14.89.03,21.08,1.71,29.86-10.59,44.02-41.14,47.35-12.38,1.26-24.91,1.42-34.44,1.42-4.69,0-9.37-.04-14.06-.09-4.68-.04-9.35-.09-14.02-.09-3.49,0-6.61.02-9.55.07-3.5.02-6.95.07-10.33.12-4.03.06-7.83.12-11.58.12h.03Z"/>
        <path d="M123.5,17.46c15.65,0,34.41,5.18,39.98,15.08,2.84,5.05,2.21,11.03-1.88,17.79-4.2,6.01-13.31,9.53-21.68,12.18-24.91,5.89-24.4,27.87-23.87,51.12v56.47c-.7,13.89.95,30.11,20.03,32.25,2.26.35,4.58.53,6.88.53,10.86,0,21.58-3.87,30.2-10.89,8.77-7.14,14.56-16.97,16.31-27.67.94-4.08,1.52-8.51,2.09-12.8,1.37-10.44,2.67-20.3,8.6-25.43,5.66-4.56,15.3-7.29,25.79-7.29,9.07,0,17.39,2.05,22.85,5.61,12.51,11.51,11.83,34.8,11.22,55.36-.23,7.67-.44,14.92.03,21.12,1.69,29.53-10.48,43.54-40.69,46.83-12.36,1.26-24.87,1.42-34.39,1.42-4.69,0-9.45-.04-14.06-.09-4.6-.04-9.36-.09-14.03-.09-3.49,0-6.61.02-9.53.07-3.51.02-6.98.07-10.34.12-4.03.06-7.83.12-11.58.12-30.12,0-53.48-3.25-57.53-44.19l-.07-.78c-.66-20.59-.53-48.32-.41-75.14.08-17.66.15-34.34.02-48.82.01-2.3,0-4.46-.01-6.55-.09-12.55-.15-21.62,6.77-32.02,8.64-13.96,25.5-23.38,42.96-23.98h.08c1.92-.21,4.02-.32,6.25-.32h0M123.5,16.46c-2.27,0-4.41.11-6.36.33-17.08.59-34.63,9.68-43.78,24.46-8.22,12.36-6.79,22.73-6.9,39.1.35,36.94-.69,90.11.4,124.03l.07.81c4.06,41.05,27.22,45.1,58.52,45.1,6.95,0,14.3-.2,21.93-.24,3.17-.05,6.34-.07,9.52-.07,9.34,0,18.72.17,28.1.17,11.53,0,23.05-.26,34.49-1.43,30.63-3.34,43.31-17.72,41.58-47.89-1.75-23,6-61.09-11.64-77.21-5.9-3.89-14.64-5.82-23.47-5.82-10.05,0-20.21,2.51-26.42,7.51-8.85,7.66-7.88,25.1-11.05,38.82-3.56,21.9-23.82,37.75-45.53,37.75-2.23,0-4.48-.17-6.73-.51-17.57-1.97-19.95-16.22-19.19-31.23-.02-18.11,0-38.09,0-56.49-.59-25.74-.01-44.7,23.13-50.16,7.89-2.5,17.72-6.09,22.25-12.6,14.94-24.61-17.63-34.41-38.94-34.41h0l.02-.02Z"/>
      </g>
      <g>
        <path class="st1" d="M437.77,249.35c-10.46,0-21.56-.06-33.31-.12-12.43-.06-25.28-.13-38.08-.13-8.85,0-16.72.03-24.05.1-1.9.03-3.88.05-5.93.05h0c-9.88,0-24.35-.5-35.8-4.81-12.36-4.65-19.13-12.99-20.12-24.8-.65-5.14-.89-10.35-1.12-15.38-.17-3.66-.33-7.12-.63-10.56l-.08-.94c-1.13-8.89-1.94-17.05-2.72-24.95-4.75-47.86-7.62-76.74-68.72-99.48-12.56-5.49-21.77-10.25-25.74-21.3-3.03-7.47-2.79-14.28.68-19.7,3.76-5.88,11.14-9.5,20.24-9.93,28.93-.6,56.73-.9,82.61-.9,31.44,0,59.09.46,82.17,1.35,1.98.31,4.02.58,6.02.86,15.65,2.14,29.17,3.99,29.98,19.4.72,9.73.13,27.7-.3,40.82l-.06,1.98c.34,7.77-1.71,14.19-5.94,18.61-3.76,3.93-9.07,6.01-15.36,6.01-1.68,0-3.45-.15-5.25-.45-14.74-2.19-19.56-11.7-24.23-20.9-4.99-9.82-10.15-19.98-27.33-20.53h-.68c-2.08,0-5.46-.26-9.38-.56-5.85-.45-13.14-1.01-19.9-1.01-10.69,0-17.14,1.42-19.74,4.35-1.03,1.17-1.46,2.57-1.26,4.18,1.07,8.37,10.75,23.5,22.09,31.2,6.82,4.81,15.28,7.92,23.82,8.74,1.65.17,3.29.25,5.02.25,3.52,0,6.68-.34,9.47-.65,2.23-.24,4.34-.47,6.22-.47,3.07,0,5.26.64,7.09,2.06,9.14,8.03,8.47,25.49,1.78,35.14-3.17,4.97-8.24,6.12-13.61,7.34-3.67.83-7.46,1.69-10.85,3.81-5.86,3.63-9.1,10.87-8.45,18.89,1.81,19.31,18.13,29.1,48.51,29.1,2.33,0,4.78-.06,7.29-.18,1.26-.02,2.59-.03,3.96-.03,1.5,0,3.04,0,4.61.02,1.64,0,3.32.02,5.01.02,14.01,0,29.55-.65,36.55-8.41,2.88-2.83,4.4-6.58,5.86-10.19.43-1.07.86-2.13,1.33-3.17,3.1-6.89,8.78-9.25,16.95-10.83,4.29-.82,8.96-1.26,13.51-1.26,8.54,0,36.43,1.89,36.79,26.2.04,1.63.12,3.35.19,5.14.7,17.31,1.67,41.02-16.73,45.33-9.77.46-22.88.67-42.41.67l.03.02Z"/>
        <path d="M285,17c31.41,0,59.03.46,82.1,1.35,2.03.31,4.06.59,6.03.86,15.43,2.11,28.76,3.93,29.56,18.95.71,9.69.13,27.66-.3,40.78l-.06,1.96v.08c.34,7.59-1.67,13.89-5.8,18.2-3.66,3.83-8.85,5.85-15,5.85-1.66,0-3.4-.15-5.19-.44-14.47-2.15-19.03-11.13-23.85-20.63-5.05-9.95-10.28-20.25-27.76-20.8h-.69c-2.06,0-5.44-.26-9.34-.56-5.86-.45-13.16-1.01-19.93-1.01-10.84,0-17.42,1.48-20.11,4.52-1.13,1.28-1.6,2.82-1.39,4.58,1.09,8.48,10.86,23.77,22.29,31.54,6.89,4.86,15.44,8,24.07,8.83,1.67.17,3.33.25,5.07.25,3.55,0,6.72-.35,9.52-.65,2.22-.24,4.32-.47,6.17-.47,2.94,0,5.03.6,6.76,1.94,8.95,7.9,8.27,25.01,1.68,34.51-3.05,4.78-8.02,5.91-13.29,7.11-3.71.84-7.54,1.71-11,3.88-6.02,3.73-9.35,11.15-8.68,19.37,1.05,11.19,7.01,19.32,17.73,24.18,7.86,3.56,18.39,5.37,31.27,5.37,2.33,0,4.79-.06,7.28-.18,1.15-.02,2.45-.03,3.96-.03s3.04,0,4.61.02c1.64,0,3.32.02,5.02.02,14.11,0,29.75-.66,36.9-8.55,2.97-2.93,4.5-6.71,5.98-10.36.42-1.05.86-2.13,1.32-3.15,3.01-6.69,8.58-9,16.59-10.55,4.26-.82,8.9-1.25,13.42-1.25,6.88,0,16.74.98,24.67,5.62,7.58,4.44,11.49,11.2,11.63,20.1.05,1.63.11,3.33.19,5.15.7,17.11,1.65,40.52-16.25,44.8-9.84.47-22.92.67-42.38.67-10.46,0-21.56-.06-33.3-.12-12.43-.07-25.27-.13-38.08-.13-8.86,0-16.73.03-24.07.1-2.26.04-4.14.05-5.92.05-9.85,0-24.25-.49-35.63-4.77-12.34-4.64-18.82-12.61-19.81-24.41-.64-5.1-.88-10.3-1.11-15.32-.17-3.67-.33-7.13-.63-10.57l-.08-.98c-1.12-8.86-1.93-17.02-2.72-24.91-2.41-24.3-4.32-43.49-13.32-59.57-9.58-17.11-26.76-29.55-55.7-40.32-12.45-5.45-21.57-10.15-25.49-21.05-2.96-7.29-2.74-13.94.65-19.23,3.67-5.74,10.91-9.28,19.82-9.7,28.94-.6,56.73-.9,82.61-.9M285,16c-29.85,0-58.92.41-82.63.9-17.73.84-28.25,13.35-21.37,30.31,3.99,11.12,13.19,15.98,26.04,21.6,70.58,26.26,63,59.88,71.12,124l.08.94c.73,8.29.64,17.18,1.75,25.94,2.28,27.18,33.43,30.06,56.42,30.06,2.05,0,4.04-.02,5.94-.05,7.91-.07,15.98-.1,24.06-.1,24.77,0,49.73.25,71.38.25,16.68,0,31.39-.15,42.52-.68,20.74-4.86,17.4-33.7,16.92-50.96-.31-20.25-19.59-26.69-37.29-26.69-4.79,0-9.46.47-13.61,1.27-8.28,1.6-14.16,4.11-17.31,11.12-2.02,4.5-3.43,9.61-7.11,13.23-6.79,7.52-22.09,8.24-36.18,8.24-3.32,0-6.57-.04-9.63-.04-1.37,0-2.7,0-3.98.03-2.32.11-4.76.18-7.27.18-20.54,0-45.75-4.54-48.01-28.64-.58-7.16,2.04-14.61,8.22-18.43,8.27-5.17,19.15-2.73,24.61-11.3,6.74-9.71,7.66-27.44-1.88-35.82-2.14-1.67-4.57-2.17-7.4-2.17-4.23,0-9.35,1.12-15.69,1.12-1.58,0-3.23-.07-4.97-.24-8.36-.8-16.79-3.86-23.59-8.65-9.62-6.54-20.65-21.31-21.88-30.85-.77-6.38,9.13-7.98,20.5-7.98s24.07,1.57,29.27,1.57h.66c32.78,1.04,20.59,36.82,51.5,41.42,1.85.31,3.64.45,5.33.45,13.98,0,22.46-10.03,21.8-25.1.44-13.58,1.12-32.61.36-42.84-.94-17.84-18.44-17.98-36.49-20.73-25.54-1-54.21-1.36-82.2-1.36h.01Z"/>
      </g>
      <g>
        <path class="st1" d="M547.34,248.99c-12.39,0-22.21-3.74-28.39-10.82-6.87-7.86-9.31-19.58-7.25-34.84l.1-1.02c.53-5.63,2.31-13.6,7.72-19.6,4.06-4.2,9.17-7.27,14.1-10.25,7.24-4.36,14.72-8.88,19.36-17.07,16.7-19.27,13.49-50.81,10.65-78.65-2.93-28.78-5.47-53.63,13.56-58.99,7.17-1.07,15.2-1.55,25.99-1.55,4.6,0,9.3.09,13.84.17,4.52.08,9.2.17,13.74.17,3.27,0,6.19-.04,8.91-.13,5.7-.12,11.77-.24,17.58-.24,27.65,0,48.56,2.7,60.74,15.88,9.63,10.43,13.38,27.25,11.46,51.44,1.25,27.03-2.93,44.77-13.16,55.88-14.2,15.43-38.52,17.41-76.9,18.82-40.15,1.48-45.24,3.3-44.32,45.7-.52,19.39-4.08,33.62-19.74,39.99-9.98,3.4-19.41,5.12-27.98,5.12h-.01ZM645.27,114.09c2.68,0,5.51.05,8.25.11,2.81.05,5.71.11,8.54.11,10.81,0,21.67-.74,27.8-6.09,10.28-8.66,12.19-28.72,3.72-39.03-5.53-5.24-13.01-5.65-22.23-5.65-1.2,0-2.43,0-3.71.02-1.37,0-2.79.02-4.26.02-1.69,0-3.45,0-5.28-.05-1.39.14-2.92.2-4.75.2-2.31,0-4.75-.1-7.34-.21-2.69-.11-5.47-.23-8.2-.23-8.43,0-17.54.98-21.08,8.28l-.36.88c-2.71,9.65-1.1,23.14-.55,27.05,2.55,12.21,10.85,14.7,22.54,14.7.56,0,1.13,0,1.71-.02,1.57-.06,3.27-.09,5.21-.09h0Z"/>
        <path d="M657.24,16.66c27.52,0,48.32,2.67,60.37,15.72,9.53,10.32,13.24,27.02,11.33,51.06v.12c1.24,26.83-2.89,44.45-13.02,55.46-14.06,15.29-38.3,17.25-76.55,18.66-21.2.78-31.87,1.81-38.01,7.82-6.34,6.2-7.24,17.32-6.78,38.34-.52,19.21-4.02,33.29-19.4,39.55-9.81,3.33-19.43,5.1-27.82,5.1-12.24,0-21.93-3.68-28.01-10.65-6.77-7.75-9.17-19.34-7.13-34.48l.1-1c.53-5.55,2.27-13.41,7.57-19.29,4.03-4.16,9.11-7.22,14.02-10.19,7.28-4.39,14.8-8.93,19.51-17.21,16.81-19.44,13.58-51.07,10.73-78.99-2.91-28.52-5.42-53.16,13.14-58.44,7.19-1.07,15.19-1.55,25.91-1.55,4.59,0,9.29.09,13.83.17,4.52.08,9.2.17,13.75.17,3.28,0,6.2-.04,8.92-.13,5.7-.12,11.77-.24,17.57-.24M638.35,114.69c.56,0,1.14,0,1.74-.02,1.55-.06,3.25-.09,5.18-.09,2.68,0,5.5.05,8.23.11,2.81.05,5.72.11,8.56.11,10.91,0,21.87-.75,28.11-6.2,5.01-4.22,8.33-11.2,9.11-19.16.79-8-1.15-15.5-5.32-20.58l-.04-.05-.05-.04c-5.62-5.32-13.2-5.74-22.53-5.74-1.2,0-2.44,0-3.72.02-1.37,0-2.79.02-4.27.02-1.93,0-3.65-.02-5.26-.05h-.12c-1.31.13-2.83.2-4.64.2-2.3,0-4.74-.1-7.32-.21-2.7-.11-5.49-.23-8.22-.23-8.59,0-17.87,1.02-21.53,8.56l-.02.03v.03l-.35.85-.02.05v.05c-2.73,9.69-1.12,23.27-.56,27.2v.06c2.62,12.51,11.1,15.07,23.03,15.07M657.24,15.66c-5.64,0-11.52.11-17.59.24-2.93.1-5.91.13-8.9.13-9.09,0-18.4-.34-27.58-.34s-17.75.32-26.12,1.57c-38.39,10.81,9.13,99.14-24.48,137.83-7.74,13.72-23.35,16.87-33.43,27.28-4.72,5.23-7.14,12.45-7.85,19.89l-.1,1c-4.44,32.87,12.52,46.22,36.14,46.22,8.73,0,18.37-1.82,28.17-5.16,16.01-6.5,19.53-21.14,20.05-40.46-.9-41.63,3.58-43.7,43.84-45.19,59.82-2.21,93.79-5.01,90.54-75.16,4.81-60.57-26-67.86-72.69-67.86h0ZM638.35,113.69c-12.58,0-19.72-3.15-22.04-14.27-1.18-8.26-1.62-19.17.51-26.79l.34-.85c3.28-6.75,11.67-8,20.64-8,5.29,0,10.79.44,15.55.44,1.69,0,3.28-.05,4.74-.2,1.83.04,3.59.05,5.28.05,2.85,0,5.51-.03,7.98-.03,9.64,0,16.6.51,21.84,5.47,8.43,10.26,6.38,29.88-3.66,38.34-5.86,5.11-16.34,5.97-27.47,5.97-5.6,0-11.37-.22-16.79-.22-1.78,0-3.53.02-5.22.09-.58.01-1.15.02-1.7.02h0v-.02Z"/>
      </g>
      <g>
        <path class="st1" d="M477.94,161.01c-19.56,0-34.54-5.53-44.51-16.44-12.92-14.13-17.97-37.95-15.02-70.79.92-23.01,10.26-40.87,25.61-49,10.43-5.29,23.04-8.2,35.52-8.2,21.31,0,39.22,8.23,49.14,22.57,15.28,23.63,18.57,62.79,7.66,91.1-7.57,16.74-23.39,27.37-44.54,29.92l-1.13.15c-4.42.46-8.7.69-12.72.69h0ZM472.51,60.98c-5.05,0-10.16,1.29-14.39,3.64-6.3,3.65-10.12,11.59-10.49,21.8-1.25,15.16.96,25.59,6.74,31.86,4.06,4.41,9.95,6.65,17.51,6.65,1.62,0,3.34-.1,5.12-.31l.46-.06c8.62-1.13,15.07-5.89,18.17-13.39,4.39-12.46,3.06-29.68-3.08-40.08-4.06-6.43-11.36-10.11-20.03-10.11h-.01Z"/>
        <path d="M479.54,17.08c21.15,0,38.91,8.15,48.71,22.33,15.21,23.51,18.48,62.47,7.63,90.63-7.51,16.59-23.18,27.11-44.15,29.63l-1.1.14c-4.41.46-8.68.69-12.69.69-19.42,0-34.27-5.48-44.14-16.27-12.82-14.02-17.83-37.71-14.89-70.45.91-22.81,10.15-40.5,25.33-48.55,10.37-5.26,22.9-8.15,35.3-8.15M471.87,125.42c1.64,0,3.38-.1,5.2-.31l.44-.06c8.81-1.16,15.4-6.02,18.57-13.7v-.02l.02-.02c4.43-12.56,3.08-29.96-3.15-40.5-4.15-6.56-11.6-10.33-20.45-10.33-5.13,0-10.33,1.32-14.65,3.71-6.44,3.73-10.35,11.83-10.73,22.16-1.26,15.33.99,25.88,6.87,32.26,4.16,4.52,10.18,6.81,17.88,6.81M479.54,16.08c-12.59,0-25.24,2.93-35.76,8.26-17.46,9.25-25.07,29.36-25.87,49.4-4.6,51.21,9.1,87.77,60.03,87.77,4.03,0,8.29-.23,12.79-.7l1.13-.15c20.02-2.41,36.91-12.47,44.94-30.23,10.55-27.35,8.26-66.87-7.71-91.56-10.94-15.84-30.16-22.79-49.55-22.79h0ZM471.87,124.42c-20.15,0-25.56-15.82-23.74-37.99.32-8.67,3.33-17.38,10.24-21.38,4.16-2.31,9.17-3.58,14.14-3.58,7.67,0,15.27,3.01,19.6,9.86,6.32,10.69,7.22,27.79,3.05,39.63-3.18,7.69-9.86,12.04-17.78,13.09l-.45.06c-1.78.2-3.47.3-5.06.3h0Z"/>
      </g>
      <g>
        <path class="st1" d="M823.39,249.22c-1.65,0-3.4-.08-5.2-.23h-17.09c-6.41,0-10.44,0-12.68-.05-4.3-.1-7.73-1.36-10.78-3.97-6.84-6.5-6.66-19.17-2.18-26.92,2.89-4.76,8.33-6.19,14.08-7.7,3.81-1.01,7.76-2.05,10.84-4.16,10.26-6.44,11.66-27.52,5.21-38.53-4.55-5.82-10.42-6.29-17.07-6.29,0,0-3.37,0-3.75,0-.94,0-1.88,0-2.82-.02-.93,0-1.86-.02-2.79-.02-6.35,0-13.02.46-18.57,6.01-2.13,2.23-4.13,4.56-6.26,7.03-4.26,4.96-8.67,10.08-14.16,14.38-1.13.92-2.33,1.8-3.49,2.67-4.06,3.01-8.25,6.12-10.39,11.03-2.34,5.32-2.3,11.55-2.25,17.56.05,7.5.11,14.57-4.01,20.13-3.53,5.29-10.53,8.84-17.43,8.84h-.28c-1.28-.03-3.46-.04-6.67-.04-4.49,0-10.53.02-17.37.05-8.88.04-19.08.08-28.92.08-16.29,0-27.44-.12-34.05-.35,1.06-48.25,20.27-53.9,46.83-61.71,12.04-3.54,25.69-7.55,39.88-16.11,33.01-19.07,46.13-30.61,42.86-68.52v-19.15c0-11.16,0-22.49.01-31.91-.64-11.44,4.07-26.19,14.06-31.05,5-3.05,11.49-3.47,17.75-3.47.92,0,1.83,0,2.71.02.86,0,1.69.02,2.51.02.73,0,1.44,0,2.13-.02,1.1.04,2.24.05,3.38.05,1.29,0,2.59-.02,3.91-.03,1.33-.02,2.68-.04,4.04-.04,2.19,0,4.02.05,5.75.15,11.22,1.56,24.31,21.93,34.98,54.49,10.03,30.6,15.45,64.69,13.81,86.84v57.99c.94,11.72-1.12,20.38-6.1,25.78-4.41,4.77-11.28,7.19-20.44,7.19h0v-.03ZM796.08,72.55c-8.08,0-15.41,6.03-17.42,14.34-1.1,4.52-1.45,9.37-1.78,14.06-.15,2.1-.3,4.27-.52,6.34-.13,1.82-.31,3.44-.47,4.87-.42,3.77-.67,6.04.45,7.12l.44.36.08.03c1.79.6,4.59.86,9.09.86,1.83,0,3.75-.04,5.61-.08,1.75-.04,3.45-.08,5-.08,1.15,0,2.1.02,2.9.06h4.47c4.57,0,7.8-.29,8.66-1.71,1.95-2.93,2.1-9.8,2.21-14.81.01-.58.02-1.13.04-1.64-.14-10.76-2.38-18.67-6.84-24.21-3.14-3.57-7.36-5.52-11.9-5.52h-.02Z"/>
        <path d="M795.39,17.28c2.16,0,3.97.05,5.68.15,11.06,1.58,23.98,21.81,34.58,54.14,10.01,30.54,15.42,64.55,13.79,86.65v58.12c.93,11.54-1.08,20.07-5.96,25.36-4.31,4.67-11.06,7.03-20.08,7.03-1.63,0-3.37-.08-5.16-.23h-17.19c-6.37,0-10.38,0-12.6-.05-4.17-.1-7.49-1.31-10.45-3.83-6.67-6.36-6.47-18.73-2.11-26.29,2.79-4.59,8.13-6,13.78-7.49,3.86-1.02,7.84-2.07,10.96-4.21,4.95-3.11,8.29-9.7,9.17-18.08.81-7.68-.64-15.78-3.78-21.14l-.03-.06-.04-.05c-4.65-5.94-10.65-6.42-17.43-6.42h-2.61c-.38,0-.76,0-1.14,0-.94,0-1.87,0-2.8-.02-.93,0-1.86-.02-2.79-.02-6.46,0-13.25.48-18.95,6.18-2.13,2.23-4.14,4.57-6.27,7.04-4.24,4.94-8.63,10.05-14.1,14.32-1.11.9-2.3,1.79-3.46,2.64-4.11,3.05-8.36,6.2-10.55,11.23-2.39,5.42-2.34,11.7-2.3,17.77.05,7.41.1,14.41-3.92,19.83v.02l-.03.02c-3.43,5.14-10.26,8.59-17,8.59h-.27c-1.29-.03-3.47-.04-6.68-.04-4.49,0-10.46.02-17.38.05-8.95.04-19.09.08-28.92.08-15.88,0-26.87-.11-33.53-.33.54-21.84,4.86-36.2,13.58-45.14,8.13-8.34,19.6-11.71,32.88-15.61,12.07-3.55,25.75-7.57,39.98-16.15,17.11-9.89,28.37-17.56,35.29-27.53,7.11-10.24,9.45-22.63,7.83-41.43v-19.06c0-11.19,0-22.55.01-32.01v-.06c-.33-5.92.79-12.46,3.09-17.94,1.77-4.24,5.07-9.86,10.69-12.6l.04-.02.04-.02c4.86-2.97,11.26-3.38,17.45-3.38.92,0,1.82,0,2.71.02.86,0,1.7.02,2.51.02.72,0,1.43,0,2.12-.02,1.03.03,2.14.05,3.4.05s2.6-.02,3.91-.04c1.33-.02,2.67-.04,4.04-.04M785.95,121.03c1.84,0,3.76-.04,5.62-.08,1.77-.04,3.45-.08,4.99-.08,1.14,0,2.08.02,2.87.06h4.49c4.88,0,8.1-.33,9.07-1.92,2.04-3.07,2.19-10.02,2.3-15.1.01-.58.02-1.12.04-1.67-.14-10.86-2.42-18.87-6.98-24.53-3.22-3.66-7.57-5.67-12.26-5.67-8.31,0-15.84,6.19-17.91,14.72-1.11,4.56-1.46,9.43-1.8,14.15-.16,2.19-.3,4.26-.53,6.35-.13,1.79-.31,3.41-.46,4.83-.43,3.92-.7,6.29.6,7.54l.03.03.04.03.34.27.14.11.17.06c1.84.61,4.69.89,9.24.89M795.39,16.28c-2.71,0-5.34.07-7.95.07-1.13,0-2.26-.01-3.39-.05-.69.02-1.39.02-2.12.02-1.66,0-3.42-.03-5.22-.03-6.13,0-12.79.36-17.97,3.52-10.02,4.87-15.02,19.6-14.34,31.5-.02,15,0,34.82-.01,51.11,3.22,37.29-9.42,48.86-42.62,68.05-45.67,27.56-85.53,7.71-86.96,78.58l.12.15c7.63.29,20.66.37,34.43.37,17.41,0,35.98-.13,46.3-.13,2.99,0,5.29,0,6.66.04h.29c6.56,0,13.95-3.21,17.83-9.04,7.67-10.35,1.22-26.18,6.33-37.79,2.69-6.19,8.73-9.44,13.72-13.5,8.23-6.43,14.03-14.72,20.46-21.45,5.29-5.29,11.62-5.87,18.23-5.87,1.85,0,3.72.05,5.59.05h3.75c6.36,0,12.2.37,16.65,6.04,6.25,10.68,5.16,31.44-5.06,37.87-7.47,5.13-20.03,3.76-25.06,12.03-4.64,8.03-4.68,20.93,2.29,27.55,3.33,2.85,7,3.99,11.1,4.09,2.63.04,7.42.05,12.62.05h17.11c1.83.16,3.58.23,5.24.23,20.19,0,28.81-11.39,27.04-33.47v-57.96c3.44-46.46-23.91-138.34-49.26-141.86-1.97-.12-3.89-.15-5.77-.15h0l-.03-.02ZM785.95,120.03c-3.61,0-6.92-.17-8.93-.84l-.34-.27c-1.33-1.28-.28-5.34.17-11.58.71-6.6.7-13.81,2.3-20.33,2.08-8.59,9.5-13.96,16.94-13.96,4.13,0,8.27,1.66,11.51,5.33,5.28,6.55,6.62,15.6,6.73,23.88-.13,4.72-.07,13.04-2.17,16.21-.8,1.31-4.65,1.47-8.23,1.47-1.19,0-2.36-.02-3.38-.02h-1.06c-.88-.05-1.87-.07-2.93-.07-3.19,0-7.04.16-10.61.16h0v.02Z"/>
      </g>
      <g>
        <path class="st1" d="M1009.03,249.2c-17.5,0-31.82-7.13-38.31-19.08-3.44-7.76-3.44-16.63-3.43-25.21,0-6.02.01-12.25-1.17-18.09-1.84-14.41-13.07-25.29-26.1-25.29-1.17,0-2.37.09-3.55.26-8.43.19-15.71,4.21-19.42,10.77-3.37,5.96-3.16,13.15.59,19.72,2.97,5.52,7.56,7.86,12.42,10.34,4.15,2.11,8.44,4.3,11.83,8.69,3.03,3.77,5.02,8.67,5.6,13.79.77,7.12-.83,13.11-4.62,17.33-3.93,4.37-9.94,6.68-17.4,6.68-1.02,0-2.08-.05-3.15-.13-1.17-.04-2.44-.06-3.89-.06s-2.83.02-4.25.04-2.84.04-4.26.04c-10.42,0-20.96-.89-25.39-11.54-11.7-26.63-11.24-78.57-10.9-116.49.13-14.35.24-26.74-.37-34.61-.07-5.51-1.77-10.01-5.17-13.74-1.99-2.39-5.01-4.05-8.21-5.81-3.5-1.93-7.11-3.92-9.6-7.02-5.21-7.42-13.65-21.66-11.53-33.44l.74-1.9c4.61-6.97,14.56-7.6,23.52-7.64,3.77.04,8.3.06,13.84.06,7.46,0,15.85-.03,24.68-.07,9.77-.04,20.07-.08,30.2-.08,17.65,0,30.76.13,41.25.42,31.13,1.38,34.62,26.29,34.19,47.83-.54,26.72-.81,40.13-27.64,52.41-2.92,1.5-5.7,2.74-8.14,3.83-4.72,2.11-6.82,3.09-7.14,4.18-.08.29-.04.57.13.82,1.26,1.4,4.82,2.36,8.59,3.36,2.33.62,4.75,1.27,6.32,1.97,26.68,9.97,29.1,23.81,28.23,34.74-.3,14.68-.56,27.33,6.33,34.37,3.98,4.06,10.14,6.04,18.84,6.04,1.56,0,3.23-.06,4.97-.19,2.32-.19,4.87-.28,7.8-.28,3.46,0,7.05.13,10.52.25,3.48.12,7.07.25,10.53.25,13.04,0,26.08-1.65,33.12-13.63l.03-.05.02-.06c4.13-13.45,9.8-22.4,24.03-22.4.64,0,1.29.02,1.96.05,6.59.76,11.86,3.7,15.63,8.72,9.86,13.13,7.19,36.57,5.59,46.04-2.13,14.42-11.84,23.73-24.74,23.73h0c-.81,0-1.64-.04-2.47-.11-13.51.02-35.02.02-56.87.02h-48.85c-1.65.13-3.29.2-4.92.2v-.03ZM939.7,52.64c-5.12,0-10.53.28-15.77.54-5.1.26-9.92.5-14.36.5-3.84,0-6.97,3.34-6.97,7.44v18.96c0,7.37,5.99,13.36,13.36,13.36h28.23c7.95,0,15.7-3.89,20.24-10.15,4.22-5.83,5.25-12.98,2.9-20.14-3.06-9.32-16.38-10.52-27.64-10.52h.01Z"/>
        <path d="M931.75,17.19c17.64,0,30.74.13,41.21.41,13.7.61,22.93,5.63,28.22,15.36,5.31,9.77,5.68,22.92,5.5,31.97-.53,26.51-.8,39.82-27.39,51.99-2.89,1.48-5.66,2.72-8.1,3.81-4.99,2.23-7.04,3.19-7.41,4.5-.12.43-.06.86.19,1.23l.04.06.05.06c1.32,1.45,4.94,2.42,8.79,3.45,2.32.62,4.71,1.26,6.25,1.94h.03l.03.02c13.83,5.17,29.5,13.74,27.88,34.23v.06c-.3,14.76-.57,27.51,6.48,34.69,4.08,4.16,10.36,6.19,19.2,6.19,1.57,0,3.26-.06,5.01-.19,2.31-.19,4.84-.28,7.76-.28,3.45,0,7.03.13,10.5.25,3.48.12,7.08.25,10.55.25,13.19,0,26.38-1.68,33.55-13.88l.06-.1.03-.11c4.06-13.23,9.63-22.05,23.55-22.05.62,0,1.26.02,1.9.05,6.46.75,11.6,3.62,15.29,8.53,3.87,5.16,6.18,12.54,6.85,21.93.66,9.12-.38,17.94-1.36,23.75-2.09,14.15-11.6,23.29-24.24,23.29-.8,0-1.61-.04-2.42-.11h-.1c-11.41.02-29.86.02-56.42.02h-49.34c-1.59.14-3.22.2-4.84.2-17.3,0-31.44-7.02-37.85-18.78-3.4-7.69-3.4-16.49-3.39-25.01,0-6.04.01-12.28-1.18-18.16-1.9-14.67-13.32-25.73-26.59-25.73-1.18,0-2.38.09-3.56.26-8.64.21-16.06,4.33-19.85,11.03-3.46,6.11-3.25,13.48.58,20.19,3.05,5.67,7.92,8.16,12.64,10.56,4.1,2.09,8.34,4.25,11.68,8.56,2.97,3.69,4.92,8.5,5.49,13.52.75,6.98-.81,12.84-4.5,16.95-3.83,4.26-9.72,6.52-17.03,6.52-1.01,0-2.05-.04-3.15-.14-1.16-.04-2.43-.06-3.89-.06s-2.83.02-4.25.04c-1.42.02-2.84.04-4.25.04-10.25,0-20.62-.87-24.94-11.25-11.65-26.52-11.19-78.4-10.85-116.28.13-14.34.24-26.73-.37-34.62-.08-5.66-1.82-10.26-5.27-14.03-2.06-2.48-5.12-4.16-8.36-5.95-3.44-1.9-7-3.86-9.43-6.87-5.17-7.37-13.49-21.4-11.46-32.97l.71-1.85c4.49-6.72,14.26-7.33,23.06-7.37,3.78.04,8.32.06,13.87.06,7.46,0,15.83-.03,24.68-.07,9.86-.04,20.06-.08,30.19-.08M915.97,93.95h28.23c8.11,0,16.02-3.97,20.64-10.36,4.32-5.96,5.38-13.27,2.97-20.59-1.66-5.06-6.36-10.86-28.12-10.86-5.13,0-10.55.28-15.79.54-5.09.26-9.91.5-14.33.5-4.12,0-7.47,3.56-7.47,7.94v18.96c0,7.64,6.22,13.86,13.86,13.86M931.75,16.19c-19.29,0-39.15.16-54.87.16-5.11,0-9.78-.02-13.86-.06-8.11.04-19.03.38-23.96,7.91l-.79,2.05c-2.07,11.46,5.56,25.2,11.63,33.84,4.83,6.02,13.71,7.91,17.83,12.86,3.62,3.96,4.97,8.6,5.04,13.44,2.18,28.3-4.94,114.3,11.3,151.26,4.47,10.75,14.87,11.85,25.85,11.85,2.83,0,5.69-.07,8.5-.07,1.3,0,2.58.02,3.85.06,1.08.09,2.15.14,3.19.14,14.51,0,24.22-8.82,22.53-24.57-.58-5.09-2.51-10.07-5.7-14.04-7.38-9.54-18.74-8.8-24.21-18.97-8.35-14.65,2.26-29.39,18.47-29.75,1.18-.17,2.34-.26,3.48-.26,13.21,0,23.85,11.2,25.61,24.89,2.86,14.13-1.29,30.07,4.66,43.45,7.46,13.74,23.8,19.34,38.75,19.34,1.66,0,3.31-.07,4.92-.2h49.25c21.72,0,43.04,0,56.42-.02.85.08,1.69.11,2.51.11,13.25,0,23.1-9.7,25.23-24.14,3.29-19.42,3.65-52.41-21.68-55.34-.68-.04-1.34-.05-1.99-.05-14.88,0-20.47,9.59-24.51,22.75-6.72,11.45-19.12,13.38-32.68,13.38-6.91,0-14.13-.5-21.05-.5-2.67,0-5.29.07-7.84.28-1.74.13-3.39.19-4.93.19-25.39,0-25.15-16.84-24.67-39.86,1.59-20.02-12.43-29.22-28.52-35.24-4.01-1.78-12.83-3.09-14.7-5.15-.96-1.45,6.65-3.84,14.95-8.1,27.11-12.41,27.39-26.06,27.93-52.86.47-23.47-3.9-46.98-34.68-48.34-11.99-.32-26.45-.42-41.25-.42h0v-.02ZM915.97,92.95c-7.1,0-12.86-5.76-12.86-12.86v-18.96c0-3.66,2.81-6.94,6.47-6.94,9.11,0,20.14-1.05,30.13-1.05,13.12,0,24.42,1.81,27.17,10.17,5.35,16.3-7.93,29.63-22.67,29.63h-28.24Z"/>
      </g>
      <g>
        <path class="st1" d="M1046.43,190.63c-11.91,0-21.05-4.71-25.06-12.93-2.57-5.87-2.49-9.62-2.34-15.85.06-2.72.13-5.81,0-9.73V56.21c-1.28-12.62,1.36-23.32,7.44-30.18,5.22-5.9,12.79-8.98,22.49-9.18l1.08-.06c4.79-.13,10.06-.19,17.08-.19,3.37,0,6.77.01,10.2.03,3.46.01,6.93.03,10.4.03,2.31,0,4.62,0,6.91-.02,1.47.02,2.93.02,4.37.02h6.1c13.87-.01,24.24.65,31.51,9.25,13.14,15.19,12.09,48.93,11.64,63.33-.12,2.2-.21,4.32-.29,6.37-.42,10.54-.76,18.87-5.36,28.3-8.1,14.65-34.61,36.24-76.66,62.41-5.65,2.73-12.77,4.31-19.49,4.31h-.02ZM1062.84,72.62c-13.63.77-13.06,11.71-12.52,22.28.18,3.47.36,7.05.06,10.26.21,3.79.09,7.69-.03,11.46-.07,2.27-.15,4.61-.15,6.87,0,8.36,6.79,15.17,15.12,15.17,2.42,0,4.78-.57,7-1.71,10.88-5.54,21.18-16.53,24.08-19.77,1.69-1.88,2.84-4.15,3.42-6.73,1.66-7.3,2.44-18.33-.33-27.35-1.68-5.46-6.13-9.54-11.35-10.4-1.92-.31-4.13-.47-6.76-.47s-5.25.15-7.82.28c-2.47.13-4.8.26-6.97.26-1.41,0-2.61-.05-3.67-.17h-.08v.02Z"/>
        <path d="M1067.11,17.1c3.36,0,6.77.01,10.19.03,3.46.01,6.93.03,10.39.03,2.32,0,4.63,0,6.91-.02,1.49.02,2.95.02,4.38.02h6.1c13.73,0,24,.65,31.14,9.1,13.01,15.04,11.96,48.64,11.51,62.96-.12,2.21-.21,4.33-.29,6.38-.42,10.48-.75,18.75-5.3,28.08-8.08,14.6-34.51,36.1-76.44,62.2-5.62,2.71-12.64,4.27-19.27,4.27-11.71,0-20.68-4.61-24.6-12.61-2.54-5.78-2.45-9.5-2.31-15.66.06-2.73.13-5.83,0-9.73V56.14c-1.27-12.43,1.33-23,7.31-29.75,5.13-5.79,12.57-8.82,22.16-9.01l1.03-.06c4.79-.13,10.06-.19,17.08-.19M1066.58,72.29c-1.39,0-2.57-.05-3.62-.16h-.16c-14.12.8-13.52,12.49-12.99,22.8.18,3.45.36,7.01.06,10.19v.16c.21,3.69.09,7.58-.03,11.34-.07,2.27-.15,4.62-.15,6.88,0,8.64,7.01,15.66,15.62,15.66,2.5,0,4.93-.59,7.23-1.76,10.96-5.58,21.31-16.63,24.23-19.88,1.74-1.95,2.93-4.29,3.54-6.95,1.67-7.37,2.46-18.49-.34-27.61-1.73-5.64-6.34-9.86-11.75-10.74-1.94-.32-4.18-.47-6.84-.47s-5.27.15-7.85.29c-2.46.13-4.79.26-6.95.26M1067.11,16.1c-5.88,0-11.63.04-17.11.19l-1.06.06c-24.04.48-32.57,18.69-30.42,39.86v95.92c.44,12.97-1.36,17.22,2.4,25.79,4.61,9.43,14.92,13.21,25.51,13.21,6.98,0,14.08-1.64,19.75-4.39,24.62-15.32,65.82-42.67,76.84-62.61,5.57-11.41,4.96-21.49,5.7-34.87.6-19.36.69-49.28-11.76-63.67-7.5-8.88-18.36-9.44-31.9-9.44-1.98,0-4.01.01-6.1.01-1.43,0-2.89,0-4.37-.02-2.3.02-4.61.02-6.92.02-6.89,0-13.82-.05-20.58-.05h.02ZM1066.58,73.29c4.49,0,9.78-.55,14.79-.55,2.32,0,4.59.12,6.68.46,5.26.86,9.39,4.96,10.96,10.05,2.55,8.29,2.2,18.82.32,27.09-.55,2.42-1.65,4.65-3.31,6.5-5.1,5.69-14.59,14.9-23.94,19.66-2.22,1.13-4.53,1.65-6.77,1.65-7.7,0-14.62-6.11-14.62-14.67,0-5.99.53-12.29.18-18.28,1.25-13.05-5.49-31.1,11.99-32.09,1.15.12,2.4.17,3.72.17h0Z"/>
      </g>
    </g>
    <g>
      <polygon class="st0" points="1150.22 17.51 1146.24 17.51 1146.24 36.75 1158.51 36.75 1158.51 33.45 1150.22 33.45 1150.22 17.51"/>
      <path class="st0" d="M1167.17,17.51l-6.67,19.24h4.3l1.45-4.44h6.96l1.45,4.44h4.28l-6.64-19.24h-5.13,0ZM1167.26,29.2l2.4-7.36h.13l2.4,7.36h-4.94,0Z"/>
      <path class="st0" d="M1191.7,26.76v-.19c1.98-.44,3.47-1.86,3.45-4.12.01-2.9-2.14-4.94-6.38-4.94h-7.65v19.24h8.16c4.34,0,6.63-2.26,6.64-5.31-.01-2.84-2.06-4.57-4.22-4.68ZM1185.11,20.75h3.16c1.82,0,2.86.94,2.84,2.34.01,1.54-1.25,2.48-2.92,2.47h-3.08v-4.81ZM1188.48,33.45h-3.37v-5.15h3.48c1.97,0,3.2,1.14,3.19,2.76.01,1.45-.98,2.4-3.29,2.39h0Z"/>
    </g>
  </g>
</svg>